# Blender v2.82 (sub 7) OBJ File: '55012.blend'
# www.blender.org
mtllib 55012.mtl
o model55012-node_model55012.001
v 48.999996 90.000000 2.000015
v -1.000000 90.000000 2.000015
v 1.000000 88.000000 8.000014
v 46.999996 88.000000 8.000014
v 46.999996 1.999999 8.000000
v 48.999996 -0.000000 2.000000
v 48.999996 90.000000 2.000015
v 46.999996 88.000000 8.000014
v -1.000000 -0.000000 2.000000
v 1.000000 1.999999 8.000000
v 1.000000 88.000000 8.000014
v -1.000000 90.000000 2.000015
v 48.999996 -0.000000 2.000000
v -1.000000 -0.000000 2.000000
v -1.000000 90.000000 2.000015
v 48.999996 90.000000 2.000015
v 1.000000 1.999999 8.000000
v 46.999996 1.999999 8.000000
v 46.999996 88.000000 8.000014
v 1.000000 88.000000 8.000014
vt 1.537902 0.900939
vt 0.998991 0.900325
vt 0.999082 0.011318
vt 1.537994 0.018182
vt 0.003993 0.875333
vt 0.000179 0.000671
vt 0.999637 0.000168
vt 0.999081 0.894573
vt -0.542587 0.010253
vt -0.544676 0.882160
vt -1.546624 0.889598
vt -1.547493 0.015611
vt 0.001297 -2.800242
vt 1.001519 -2.794041
vt 0.996880 -0.001241
vt -0.000279 -0.003194
vt 0.000000 -2.798830
vt 1.000000 -2.798830
vt 1.000000 0.000000
vt 0.000000 0.000000
vn 0.0000 0.9487 0.3162
vn 0.9487 -0.0000 0.3162
vn -0.9487 -0.0000 0.3162
vn 0.0000 -0.9487 0.3162
vn 0.0000 0.0000 -1.0000
vn 0.0000 -0.0000 1.0000
usemtl 067_14-0
s off
f 1/1/1 2/2/1 3/3/1
f 1/1/1 3/3/1 4/4/1
f 5/5/2 6/6/2 7/7/2
f 5/5/2 7/7/2 8/8/2
f 9/9/3 10/10/3 11/11/3
f 9/9/3 11/11/3 12/12/3
f 10/10/4 6/6/4 5/5/4
f 10/10/4 9/9/4 6/6/4
usemtl 122_0-0
f 13/13/5 14/14/5 15/15/5
f 13/13/5 15/15/5 16/16/5
f 17/17/6 18/18/6 19/19/6
f 17/17/6 19/19/6 20/20/6
